<svg id="price" xmlns="http://www.w3.org/2000/svg" width="110.71mm" height="117.99mm" viewBox="0 0 313.81 334.47">
  <title>circle_snacks</title>
  <g>
    <g>
      <path d="M256,57.23c9.85,20.05,19.93,40.11,30,60,1.14,2.11,1.14,6.75,6.87,4.43,5-1.9,3-4.43,1.83-7.39-8.93-20.9-18.09-41.59-27-62.7-3-7.6-6.88-4.22-11.23-2.75-.46-2.11,1.38-3.8,2.06-5.7,2.52-6.12,8-11,13.75-11.19,6.41-.21,8.24,7.18,10.53,12.46,9.62,22,19.24,44.12,28.63,66.29,4.81,11.61,2.52,17.74-9.16,23.65-12.14,6.33-24.74,12.24-37.1,18.36-24.51,12.25-26.57,11.83-42.15-9.07-1.14-1.69-2.52-3.38-3.89-5.07C207,122.46,194.87,106.21,183,90c-6.64-9.29-5.73-13.51,4.81-16,8-1.9,16.26-2.11,24.51-4,7.79-1.9,16.26,1.68,21.3,10.76,8.93,16.26,20.38,31.46,30.69,46.87,1.37,2.32,2.29,6.12,6.41,4.22,4.35-1.9,1.15-4.85,0-7-8.93-18.16-17.86-36.32-27-54.47C236.1,55.75,234.49,49,257.4,48.78,252.13,50.89,254.65,54.27,256,57.23Zm-5.26,80.22q-20.28-30.39-40.54-60.8c-3.44-5.28-6.42-.63-9.39.21-3.67,1.27-4.13,3.38-1.84,6.34,14.43,19.21,28.63,38.63,43.06,57.84,1.15,1.27,2.06,3.17,4.58,3C249.61,142.73,253.5,141.68,250.76,137.45Z" style="fill: #fff"/>
      <path d="M224.66,64.83c-5.73,1.69-11.69.21-14-4.22-3.2-6.34-7.55-12-11.45-18-4.12-6.12,2.75-15,11-14.36,4.58.43,8.24.22,12.36-2.11s8.94-1.26,12.37,2.33c3.21,3.37,4.12,7.81,1.61,10.76-3.9,4.44-5.73,8.45-2.52,13.09C233.59,58.92,230.84,63.14,224.66,64.83Z" style="fill: #fff"/>
      <path d="M235.42,21.76c-5.5-5.7-1.38-9.71,3.43-12.67,5-3.16,26.8,4.22,29.55,9.5,1.37,2.75,1.83,6.12-.46,7.81a80.12,80.12,0,0,0-16.72,16.68c-1.83,2.32-5.5,2.32-9.62,1.27C245,31.89,244.81,31.89,235.42,21.76Z" style="fill: #fff"/>
      <path d="M173.57,43.5c1.83-6.75,14-8.65,17.41-2.74,3.89,6.76,10.07,11.82,12.82,19.42,2.52,6.76-.68,8-5.49,7.6-6-.42-10.77-.63-16.49,2.33-6.19,3.16-13.29-2.54-13.06-9.72C172,55.75,172.2,49.63,173.57,43.5Z" style="fill: #fff"/>
      <path d="M194,32.32c-.69,1.68-2.06.84-3.67.84-9.16-.21-7.1-7.6-8.24-12C180.21,14,188,8,195.56,10.78c5.27,2.11,10.31,4.65,16.26,5.49,2.52.42,5.5,2.53,4.58,6.76C207.24,22.82,198.31,23.45,194,32.32Z" style="fill: #fff"/>
      <path d="M219.38,0c5.73,0,8.7,4,12.6,6.76-4.13,3.38-3,9.92-6.87,12.45-3.67,2.33-3.9-4-6.88-5.27l-6.87-3.17c-1.83-.85-3.66-1.27-3.2-3.17C210,2.33,213.88-.2,219.38,0Z" style="fill: #fff"/>
    </g>
    <path id="line2" d="M156.64,334.47a145.2,145.2,0,0,1-55-10.66,10,10,0,0,1-5.27-13.72h0a10,10,0,0,1,12.67-4.86,127.12,127.12,0,0,0,89.12,2.28,10,10,0,0,1,12.4,5.5h0a10,10,0,0,1-6,13.43,145.73,145.73,0,0,1-48,8" style="fill: #3e3e3d"/>
    <path id="line3" d="M75.32,311.26A146.15,146.15,0,0,1,10,229.81,10,10,0,0,1,17.2,217h0a10,10,0,0,1,11.86,6.62,126.2,126.2,0,0,0,56.47,70.44,10,10,0,0,1,3.87,13h0A10,10,0,0,1,75.32,311.26Z" style="fill: #3e3e3d"/>
    <path id="line5" d="M44.8,79.52h0A10,10,0,0,1,43.42,65a145.43,145.43,0,0,1,98.42-48.4,10,10,0,0,1,10.8,10h0a10,10,0,0,1-9.21,10A125.62,125.62,0,0,0,58.31,78.33,10,10,0,0,1,44.8,79.52Z" style="fill: #3e3e3d"/>
    <path id="line4" d="M14.2,204A10,10,0,0,1,2,196a147.38,147.38,0,0,1-2-24.12,145.05,145.05,0,0,1,24.35-81A10,10,0,0,1,38.8,88.52h0a10,10,0,0,1,2.26,13.36,125.25,125.25,0,0,0-21.06,70,127.28,127.28,0,0,0,1.73,20.92A10,10,0,0,1,14.2,204Z" style="fill: #3e3e3d"/>
    <g id="line1">
      <path d="M217.58,309h0a10,10,0,0,1,4.53-12.81,126.54,126.54,0,0,0,68.17-112.36c0-1.07,0-2.14-.06-3.21v-.35l20-.55v.35c0,1.25.07,2.5.07,3.76a146.52,146.52,0,0,1-78.86,130.06A10,10,0,0,1,217.58,309Z" style="fill: #3e3e3d"/>
      <path d="M299,169.74h0a10.17,10.17,0,0,0-8.7,10.22c1.33,32.6-10.88,64.9-34.19,89.78a132.56,132.56,0,0,1-28.3,22.85c-.91.55-1.83,1.07-2.76,1.59l-.3.17L234,310.77l.3-.17c1.08-.61,2.16-1.23,3.24-1.88a153.16,153.16,0,0,0,32.75-26.45c27-28.79,41.11-66.16,39.6-103.88A9.24,9.24,0,0,0,299,169.74Z" style="fill: #3e3e3d"/>
    </g>
  </g>
</svg>
