<svg id="price" xmlns="http://www.w3.org/2000/svg" width="115.14mm" height="116.12mm" viewBox="0 0 326.38 329.15">
  <title>circle_comfort</title>
  <g>
    <path d="M220.46,77.92c2.89,14.34,11.1,14.8,20.85,13.14,22.74-3.87,45.49-7.75,68.3-11.14,15.8-2.35,18.34.5,16,16-2.66,18-2.78,18.13-20.76,20.48l-30.36,3.94c.4,6.62.76,12.66,1.15,19.2l42.54-1.9q.63,2.63,1.28,5.26c-4.29,2.18-8.39,5.67-12.9,6.34-25.93,3.82-51.94,7.13-78,10.17-4.12.48-8.51-1.32-15.16-2.48,12.64-14.48,28.36-9.18,42.3-14.44-.45-5.5-.93-11.49-1.58-19.52-8.87,1.16-16.87,2-24.78,3.28-9.64,1.59-16.65-1.42-21.58-10.1-11.2-19.7-24.1-38.57-33.58-59-6-13-7.6-28.23-10.32-42.62C162.35,6.23,167.2.39,175.39,0c7.89-.35,13.64,3.42,15.66,12.54a289.93,289.93,0,0,0,10.78,36.7c3.83,10.5,11.62,14.25,23.32,12,15.71-3.08,31.73-4.61,47.64-6.66,6.07-.78,13.29-.88,13,7.12-.11,3.17-6.62,8.07-10.81,8.81C257.37,73.61,239.51,75.45,220.46,77.92Z" style="fill: #fff"/>
    <path id="line2" d="M156.64,329.15a145.39,145.39,0,0,1-55-10.66,10,10,0,0,1-5.27-13.73h0a10,10,0,0,1,12.67-4.86,127,127,0,0,0,89.12,2.27,10,10,0,0,1,12.4,5.5h0a10,10,0,0,1-6,13.43,145.73,145.73,0,0,1-48,8" style="fill: #3e3e3d"/>
    <path id="line3" d="M75.32,305.94A146.18,146.18,0,0,1,10,224.49a10,10,0,0,1,7.16-12.81h0a10,10,0,0,1,11.86,6.62,126.2,126.2,0,0,0,56.47,70.44,10,10,0,0,1,3.87,13h0A10,10,0,0,1,75.32,305.94Z" style="fill: #3e3e3d"/>
    <path id="line5" d="M44.8,74.2h0a10,10,0,0,1-1.37-14.53,145.43,145.43,0,0,1,98.42-48.4,10,10,0,0,1,10.8,10h0a10,10,0,0,1-9.21,10A125.62,125.62,0,0,0,58.31,73,10,10,0,0,1,44.8,74.2Z" style="fill: #3e3e3d"/>
    <path id="line4" d="M14.2,198.68A10,10,0,0,1,2,190.63a147.47,147.47,0,0,1-2-24.12A145.05,145.05,0,0,1,24.35,85.56,10,10,0,0,1,38.8,83.2h0a10,10,0,0,1,2.26,13.36A125.25,125.25,0,0,0,20,166.51a127.37,127.37,0,0,0,1.73,20.92,10,10,0,0,1-7.53,11.25Z" style="fill: #3e3e3d"/>
    <g id="line1">
      <path d="M217.58,303.68h0a10,10,0,0,1,4.53-12.8,126.56,126.56,0,0,0,68.17-112.36c0-1.08,0-2.14-.06-3.21V175l20-.55v.34c0,1.26.07,2.51.07,3.77a146.52,146.52,0,0,1-78.86,130.06A10,10,0,0,1,217.58,303.68Z" style="fill: #3e3e3d"/>
      <path d="M299,164.42h0a10.17,10.17,0,0,0-8.7,10.22c1.33,32.6-10.88,64.9-34.19,89.77a132.25,132.25,0,0,1-28.3,22.85c-.91.55-1.83,1.08-2.76,1.6l-.3.17L234,305.45l.3-.17c1.08-.62,2.16-1.23,3.24-1.88A153.16,153.16,0,0,0,270.32,277c27-28.79,41.11-66.16,39.6-103.88A9.23,9.23,0,0,0,299,164.42Z" style="fill: #3e3e3d"/>
    </g>
  </g>
</svg>
