<svg id="Layer_1" data-name="Layer 1" xmlns="http://www.w3.org/2000/svg" width="116.26mm" height="115.5mm" viewBox="0 0 329.54 327.39">
  <title>circle_overall</title>
  <g id="overall">
    <path id="line3" d="M164.77,327.39a157.28,157.28,0,0,1-78.21-20.65,15.09,15.09,0,0,1-4.81-21.91h0a15.12,15.12,0,0,1,19.78-4.27,128.22,128.22,0,0,0,126.48,0,15.12,15.12,0,0,1,19.78,4.27h0A15.09,15.09,0,0,1,243,306.74,157.25,157.25,0,0,1,164.77,327.39Z" style="fill: #3e3e3d"/>
    <path id="line2" d="M255.65,279.72h0a15.05,15.05,0,0,1,1.93-20.05A128.36,128.36,0,0,0,296.8,139.28,15.14,15.14,0,0,1,307,121.79h0a15.06,15.06,0,0,1,19.32,11.26A158.53,158.53,0,0,1,278,281.86,15.09,15.09,0,0,1,255.65,279.72Z" style="fill: #3e3e3d"/>
    <path id="line5" d="M25.9,112.58h0a15.1,15.1,0,0,1-9-20.6A158.36,158.36,0,0,1,143.43.1,15.1,15.1,0,0,1,160.25,15h0A15.09,15.09,0,0,1,146.8,30.07,128.24,128.24,0,0,0,44.4,104.45,15.09,15.09,0,0,1,25.9,112.58Z" style="fill: #3e3e3d"/>
    <path id="line4" d="M73.9,279a15.11,15.11,0,0,1-22.37,2.13,158.51,158.51,0,0,1-48.3-148.8,15.05,15.05,0,0,1,19.32-11.26h0A15.12,15.12,0,0,1,32.74,138.6,128.34,128.34,0,0,0,72,259,15.08,15.08,0,0,1,73.9,279Z" style="fill: #3e3e3d"/>
    <path id="line1" d="M285.14,104.45a128.22,128.22,0,0,0-102.4-74.38A15.1,15.1,0,0,1,169.29,15h0A15.1,15.1,0,0,1,186.11.1,158.35,158.35,0,0,1,312.6,92a15.1,15.1,0,0,1-9,20.6h0A15.1,15.1,0,0,1,285.14,104.45Z" style="fill: #3e3e3d"/>
  </g>
</svg>
