<svg id="price" xmlns="http://www.w3.org/2000/svg" width="111mm" height="124.19mm" viewBox="0 0 314.65 352.03">
  <title>circle_price</title>
  <g>
    <path d="M290.74,177.61,265.43,189.1c-2.27-4.34-4.54-8.67-6.7-12.75-42.23,3.08-57.43-2.83-64.26-25.95l23-10.45c9.69,4.54,17.91,8.55,26.4,12.45.67-1.2,1.46-2.16,2.14-3.36l-16.15-35.57c-24,4.33-47.78,7.68-60.22-19.74-12.56-27.66,0-47.67,22.58-63.87-2.78-6.78-5.1-12.58-7.43-18.38L210.13,0l8.07,17.79c39.54-1,54.56,5.92,59.15,26.77L254.07,55.13c-7.36-4.11-13.51-7.57-19.55-10.79-.79.95-1.71,2.27-2.5,3.22,2.24,4.94,4.88,9.41,6.61,14.58,3.84,13.15,10.55,17.85,25.81,14.5,22.63-4.61,36.13,3,44.74,19.91,9.39,18.68,6.64,37.5-7.82,52.7-4.95,5.23-10.49,9.83-15.55,14.81C287.54,169.23,289.08,173.3,290.74,177.61Zm-17-39.37c10.13-7.28,13.59-15.11,8.83-24.27-4.66-8.91-13.06-9.26-22.28-5.38ZM216.32,83.58,203.66,55.67c-8.47,6.22-12.5,12.82-8,22.09C200.08,86.78,207.22,87.72,216.32,83.58Z" style="fill: #fff"/>
    <path id="line2" d="M156.64,352a145.2,145.2,0,0,1-55-10.66,10,10,0,0,1-5.27-13.72h0a10,10,0,0,1,12.67-4.86,127.19,127.19,0,0,0,89.12,2.27,10,10,0,0,1,12.4,5.5h0a10,10,0,0,1-6,13.44,146,146,0,0,1-48,8" style="fill: #3e3e3d"/>
    <path id="line3" d="M75.32,328.83A146.18,146.18,0,0,1,10,247.38a10,10,0,0,1,7.16-12.82h0a10,10,0,0,1,11.86,6.63,126.2,126.2,0,0,0,56.47,70.44,10,10,0,0,1,3.87,13h0A10,10,0,0,1,75.32,328.83Z" style="fill: #3e3e3d"/>
    <path id="line5" d="M44.8,97.08h0a10,10,0,0,1-1.37-14.54,145.42,145.42,0,0,1,98.42-48.39,10,10,0,0,1,10.8,10h0a10,10,0,0,1-9.21,10A125.67,125.67,0,0,0,58.31,95.9,10,10,0,0,1,44.8,97.08Z" style="fill: #3e3e3d"/>
    <path id="line4" d="M14.2,221.56a10,10,0,0,1-12.21-8A147.56,147.56,0,0,1,0,189.4a145.05,145.05,0,0,1,24.35-80.95,10,10,0,0,1,14.45-2.36h0a10,10,0,0,1,2.26,13.36A125.25,125.25,0,0,0,20,189.4a127.25,127.25,0,0,0,1.73,20.91,10,10,0,0,1-7.53,11.25Z" style="fill: #3e3e3d"/>
    <g id="line1">
      <path d="M217.58,326.57h0a10,10,0,0,1,4.53-12.8A126.56,126.56,0,0,0,290.28,201.4c0-1.08,0-2.14-.06-3.21v-.35l20-.56v.35c0,1.25.07,2.51.07,3.77a146.52,146.52,0,0,1-78.86,130.06A10,10,0,0,1,217.58,326.57Z" style="fill: #3e3e3d"/>
      <path d="M299,187.3h0a10.18,10.18,0,0,0-8.7,10.23c1.33,32.59-10.88,64.89-34.19,89.77a132.56,132.56,0,0,1-28.3,22.85c-.91.55-1.83,1.07-2.76,1.6l-.3.17L234,328.33l.3-.17c1.08-.61,2.16-1.22,3.24-1.87a153.16,153.16,0,0,0,32.75-26.45c27-28.8,41.11-66.16,39.6-103.88A9.24,9.24,0,0,0,299,187.3Z" style="fill: #3e3e3d"/>
    </g>
  </g>
</svg>
