<svg width="73" height="77" viewBox="0 0 73 77" fill="none" xmlns="http://www.w3.org/2000/svg">
<path d="M28.8296 27.0827C38.04 27.1675 37.3952 29.8843 34.3558 35.7422C30.6717 43.0434 27.0796 50.3446 23.4876 57.6458C23.0271 58.4948 21.7376 59.6833 23.4876 60.4474C25.1454 61.2115 25.5139 59.6833 26.0665 58.7495C30.2112 52.5519 34.8163 46.4393 38.4084 39.9022C40.4347 36.2516 43.8425 34.8083 46.974 35.5724C50.2898 36.3365 53.6055 36.4214 56.8291 37.1855C61.0659 38.2042 61.4343 39.9022 58.7633 43.6377C53.9739 50.1748 49.0924 56.7119 44.2109 63.1641C43.6583 63.8433 43.1057 64.5225 42.6452 65.2017C36.3821 73.6065 35.5532 73.7763 25.6981 68.8523C20.7245 66.3902 15.6588 64.0131 10.7773 61.4662C6.07996 59.089 5.15892 56.627 7.0931 51.9576C10.8694 43.0434 14.7377 34.1292 18.6061 25.2998C19.5271 23.1774 20.2639 20.2059 22.8428 20.2908C25.1454 20.3757 27.3559 22.3284 28.3691 24.7904C28.6454 25.5545 29.3822 26.2337 29.198 27.0827C27.448 26.4884 25.8823 25.13 24.6849 28.1863C21.0929 36.6761 17.4087 44.996 13.8167 53.4009C13.3562 54.5895 12.5272 55.6082 14.5535 56.3723C16.8561 57.3062 16.8561 55.4385 17.3166 54.5895C21.3692 46.6091 25.4218 38.5438 29.3822 30.4786C29.9348 29.29 30.948 27.9316 28.8296 27.0827ZM33.1585 65.3715C34.1716 65.4564 34.54 64.6923 35.0005 64.1829C40.8031 56.4572 46.5135 48.6466 52.3161 40.921C53.2371 39.7324 53.0529 38.8834 51.5792 38.374C50.3819 38.0344 49.1845 36.1667 47.803 38.2891C42.3689 46.4393 36.9347 54.5895 31.5006 62.7396C30.3954 64.4376 31.9611 64.8621 33.1585 65.3715Z" fill="white"/>
<path d="M38.2204 28.5258C39.5099 26.658 38.7731 25.045 37.2073 23.2621C36.1942 22.0736 36.5626 20.2907 37.852 18.9324C39.2336 17.4891 41.1678 17.0646 42.8256 17.9985C44.4835 18.9324 45.9572 19.0173 47.7992 18.8475C51.115 18.5928 53.8781 22.1585 52.2202 24.6205C50.6545 26.9976 48.9045 29.2899 47.615 31.8368C46.694 33.6197 44.2993 34.2139 41.9967 33.5348C39.5099 32.8556 38.4047 31.1576 38.2204 28.5258Z" fill="white"/>
<path d="M35.182 25.2994C33.5241 25.7239 32.0504 25.7239 31.3136 24.79C29.3794 22.2431 27.261 20.0358 24.59 18.0831C23.669 17.4039 23.8532 16.0456 24.4058 14.9419C25.5111 12.8195 34.2609 9.84805 36.2872 11.1215C38.2214 12.3101 39.8793 13.9231 37.6688 16.2154C33.8925 20.2905 33.8004 20.2905 35.182 25.2994Z" fill="white"/>
<path d="M64.4737 31.7515C64.5658 34.638 61.7106 36.9302 59.2238 35.6568C56.9212 34.4682 54.987 34.5531 52.5923 34.7229C50.6581 34.8927 49.3687 34.3833 50.3818 31.6666C51.4871 28.6103 53.9739 26.5727 55.5397 23.856C56.9212 21.4789 61.8027 22.2429 62.5395 24.9597C63.0922 27.4217 63.1843 29.8837 64.4737 31.7515Z" fill="white"/>
<path d="M45.3153 16.7249C44.9468 15.0269 46.1442 14.178 47.1573 14.0082C49.552 13.6686 51.5783 12.6498 53.6967 11.8008C56.7361 10.6972 59.8677 13.0743 59.1308 15.9608C58.6703 17.7437 59.4992 20.7151 55.8151 20.8C55.1704 20.8 54.6177 21.1396 54.3414 20.4604C52.5915 16.8947 48.9994 16.64 45.3153 16.7249Z" fill="white"/>
<path d="M48.6315 10.5265C48.8157 11.2906 48.0789 11.4604 47.3421 11.8C46.421 12.2245 45.5 12.649 44.579 13.0735C43.3816 13.5829 43.2895 16.1298 41.8158 15.1959C40.2501 14.1771 40.7106 11.5453 39.0527 10.187C40.6185 9.08328 41.8158 7.47023 44.1184 7.47023C46.3289 7.38533 47.8947 8.4041 48.6315 10.5265Z" fill="white"/>
</svg>
