<svg width="42" height="64" viewBox="0 0 42 64" fill="none" xmlns="http://www.w3.org/2000/svg">
<path d="M24.9036 63.1134C21.9364 63.1134 18.8793 63.1134 15.9122 63.1134C15.8223 61.5334 15.7324 59.9534 15.6424 58.4611C2.78478 53.721 -0.901682 49.9465 0.177283 42.2219C3.14444 42.2219 6.11159 42.2219 8.35943 42.2219C10.6073 44.8553 12.4955 47.1376 14.4736 49.4198C14.8332 49.1565 15.1929 48.9809 15.5525 48.7176C15.5525 44.592 15.5525 40.3786 15.5525 36.0774C7.90986 34.1462 0.447024 31.9517 0.447024 22.2082C0.447024 12.3769 6.8309 8.16349 15.6424 6.4079C15.7324 4.03786 15.8223 2.01893 15.9122 0C18.8793 0 21.9364 0 24.9036 0C24.9036 2.19449 24.9036 4.38897 24.9036 6.32012C36.6823 11.3236 40.1889 15.3614 38.7503 22.1204C35.7831 22.1204 32.816 22.1204 30.4782 22.1204C28.8598 19.9259 27.5111 18.0826 26.1624 16.327C25.8027 16.5025 25.3531 16.7659 24.9935 16.9414C24.9935 18.697 25.1733 20.3648 24.9935 22.1204C24.3641 26.5094 25.7128 28.7917 30.658 29.845C37.9411 31.5128 40.9082 35.5507 41.1779 41.6952C41.4477 48.4543 38.1209 53.6333 31.8269 56.1789C29.669 57.0567 27.4211 57.6711 25.2632 58.4611C25.0834 60.2167 24.9935 61.6212 24.9036 63.1134ZM25.1733 49.2443C29.1295 48.4543 31.1975 46.6109 31.0177 43.2753C30.8379 40.0274 28.4102 38.7985 25.1733 38.7107C25.1733 42.2219 25.1733 45.4698 25.1733 49.2443ZM15.5525 25.456C15.5525 22.2082 15.5525 19.0481 15.5525 15.537C12.2257 16.2392 10.1577 17.6437 10.2476 20.9793C10.3375 24.2271 12.3156 25.456 15.5525 25.456Z" fill="white"/>
</svg>
