<svg width="61" height="65" viewBox="0 0 61 65" fill="none" xmlns="http://www.w3.org/2000/svg">
<path d="M30.447 60.043C30.447 57.2635 30.447 54.9471 30.447 51.8896C27.0781 51.8896 23.7092 51.7969 20.3403 51.8896C16.5367 52.0749 14.2546 50.7777 12.9505 47.6275C9.03821 38.0842 4.25655 28.7262 0.996322 18.9976C-0.63379 14.087 0.126929 8.62046 0.561626 3.43187C0.6703 2.13472 3.49583 0.0963505 5.23461 0.00369716C6.9734 -0.0889562 9.14688 1.5788 10.5596 2.87595C11.3204 3.61718 11.103 5.19228 11.2117 6.39678C11.3204 8.99107 10.6683 11.7707 11.429 14.2723C12.5158 18.2564 13.6025 22.6111 16.428 25.7613C17.7321 27.2438 22.8398 26.4099 26.2087 26.5025C31.0991 26.5952 35.9894 26.5025 40.8797 26.5025C43.4879 26.5025 46.3134 26.3172 46.4221 29.4675C46.5308 32.8956 43.3792 32.803 40.6624 32.803C33.5986 32.803 26.6434 32.803 19.3622 32.803C19.5796 37.5283 21.3184 39.3814 26.9694 38.9181C36.3154 38.1769 45.7701 38.0842 55.116 37.9916C60.7671 37.8989 61.8538 39.2887 60.4411 43.9214C57.6155 53.1867 58.8109 51.7969 48.2696 51.8896C45.2267 51.8896 42.1838 51.8896 38.4889 51.8896C38.3802 54.5765 38.2715 56.9855 38.0542 60.043C42.7272 60.043 47.0741 59.8577 51.3124 60.1357C52.8339 60.2284 54.3553 61.6182 55.8767 62.3594C54.464 63.1933 53.0512 64.7684 51.6385 64.861C40.119 65.0463 28.4909 65.0463 16.8627 64.861C15.5587 64.861 14.3632 63.3786 13.0591 62.5447C14.3632 61.7108 15.5587 60.321 16.8627 60.2284C21.101 59.8577 25.448 60.043 30.447 60.043Z" fill="white"/>
</svg>
