<svg width="69" height="66" viewBox="0 0 69 66" fill="none" xmlns="http://www.w3.org/2000/svg">
<path d="M55.5816 66C49.0571 62.5778 43.025 59.5833 37.116 56.2833C34.777 55 32.9304 55 30.653 56.2833C24.8055 59.5833 18.7734 62.6389 12.3104 66C13.5415 58.7889 14.5263 52.1889 15.8189 45.65C16.3113 43.0833 15.8189 41.3722 13.8492 39.4778C9.04817 34.7722 4.55486 29.7611 0 24.9333C6.33988 24.0167 13.2337 22.9167 20.1891 22.1222C22.4665 21.8778 23.5745 20.8389 24.4362 18.9444C27.0214 13.5056 29.7297 8.12778 32.3764 2.81111C32.8073 1.95556 33.2997 1.22222 34.0384 0C37.3006 6.47778 40.3782 12.5278 43.2712 18.6389C44.256 20.7778 45.4871 21.8778 48.0107 22.1222C54.843 22.8556 61.6137 23.9556 69 25.7278C67.2765 27.1944 65.43 28.6611 63.7681 30.1889C60.3211 33.4278 57.0589 36.85 53.5504 39.9667C51.8885 41.4944 51.5192 42.9611 51.95 45.1C53.2426 51.7611 54.289 58.4833 55.5816 66Z" fill="white"/>
</svg>
