<svg id="price" xmlns="http://www.w3.org/2000/svg" width="116.26mm" height="115.5mm" viewBox="0 0 329.54 327.39">
  <title>logo</title>
  <g>
    <path d="M164.77,327.39a157.28,157.28,0,0,1-78.21-20.65,15.09,15.09,0,0,1-4.81-21.91h0a15.12,15.12,0,0,1,19.78-4.27,128.22,128.22,0,0,0,126.48,0,15.12,15.12,0,0,1,19.78,4.27h0A15.09,15.09,0,0,1,243,306.74,157.25,157.25,0,0,1,164.77,327.39Z" style="fill: #fff"/>
    <path d="M255.65,279.72h0a15.05,15.05,0,0,1,1.93-20.05A128.36,128.36,0,0,0,296.8,139.28,15.14,15.14,0,0,1,307,121.79h0a15.06,15.06,0,0,1,19.32,11.26A158.53,158.53,0,0,1,278,281.86,15.09,15.09,0,0,1,255.65,279.72Z" style="fill: #fff"/>
    <path d="M25.9,112.58h0a15.1,15.1,0,0,1-9-20.6A158.36,158.36,0,0,1,143.43.1,15.1,15.1,0,0,1,160.25,15h0A15.09,15.09,0,0,1,146.8,30.07,128.24,128.24,0,0,0,44.4,104.45,15.09,15.09,0,0,1,25.9,112.58Z" style="fill: #fff"/>
    <path d="M73.9,279a15.11,15.11,0,0,1-22.37,2.13,158.51,158.51,0,0,1-48.3-148.8,15.05,15.05,0,0,1,19.32-11.26h0A15.12,15.12,0,0,1,32.74,138.6,128.34,128.34,0,0,0,72,259,15.08,15.08,0,0,1,73.9,279Z" style="fill: #fff"/>
    <path d="M285.14,104.45a128.22,128.22,0,0,0-102.4-74.38A15.1,15.1,0,0,1,169.29,15h0A15.1,15.1,0,0,1,186.11.1,158.35,158.35,0,0,1,312.6,92a15.1,15.1,0,0,1-9,20.6h0A15.1,15.1,0,0,1,285.14,104.45Z" style="fill: #fff"/>
    <g>
      <path d="M233.3,192.6l-15.14-9.66c-2.38,6.09-1,12.06-1.21,17.82-.46,10.87-5.39,16.08-16.37,16.12-31.53.1-63.06.05-94.59,0-7.25,0-13.07-2.17-14.7-10.27.24-31,.36-62.06-.07-93.09.89-7.57,6.3-10.2,12.72-10.25q49.45-.35,98.92,0c8.86.08,13.45,5.44,14,14.61.18,3,.05,6,.05,9.08s0,5.89,0,9.3c6.52-1.14,9.91-6,14.8-8.06a2,2,0,0,1,2.84.59,10.64,10.64,0,0,1,2.64,5.68c1.25,17.13.94,34.28.2,51.43A7.94,7.94,0,0,1,233.3,192.6Z" style="fill: #fff"/>
      <path d="M91.22,113.55c2.42,1.66,2,4.2,2,6.58q0,39.94,0,79.9c0,2.38.41,4.92-2,6.61-2.09-3.35-1.21-7.08-1.22-10.65q-.12-36.35,0-72.7C90.08,120,89.21,116.6,91.22,113.55Z" style="fill: #fff"/>
      <path d="M244.25,195.85l-.82,0-.79-.24c-2.21-2.41-2.49-5.39-2.51-8.44q-.13-27.09,0-54.18c0-3,.22-6,2.37-8.49,4.52-3.69,6.07-.86,6.09,3.19q.22,32.25,0,64.49c0,2.34.32,6.22-4.3,3.7,2.33-7.66.9-15.51,1-23.25.25-14.51.07-29,.07-43.53C244.57,151.36,246.82,173.64,244.25,195.85Z" style="fill: #fff"/>
      <path d="M233.51,128.53l-1.81-.31c1.21-1.23,2.42-2.47,3.64-3.7,3.93-1.68,5.17,1.07,5.18,3.86.12,21.91,1.25,43.84-.57,65.73,0,.53-.64,1-1,1.5-1.64.35-3,.06-3.94-1.51,2.67-19.68.64-39.47,1.26-59.2A8.24,8.24,0,0,0,233.51,128.53Z" style="fill: #fff"/>
      <path d="M233.51,128.53c1.69-.83,3.65-1.79,3.64,1.34q-.12,31.09-.49,62.2c0,.68-1.06,1.36-1.63,2l-1.73-1.51C236.81,171.25,236.32,149.89,233.51,128.53Z" style="fill: #fff"/>
      <path d="M239,195.61c0-21.13.09-42.25,0-63.38,0-2.9,1.73-7.09-3.6-7.71,1.85-2.41,3.69-2.26,5.53,0a592,592,0,0,1,0,71.11Z" style="fill: #fff"/>
      <path d="M240.83,195.63q0-35.55,0-71.1h1.64q.06,35.55.13,71.11h-.91Z" style="fill: #fff"/>
      <path d="M134.57,161.28c0-6.07.07-12.14,0-18.21-.07-4,1-5.95,5.25-3.67q18,9.65,36.16,19.19c4.27,2.24,2.57,4-.35,5.56-12,6.46-24.11,12.8-36.12,19.29-3.67,2-4.94.73-4.91-3.05C134.61,174,134.58,167.65,134.57,161.28Z" style="fill: #8a2c2b"/>
      <path d="M100.87,212.45H206.06v.9h-105Z" style="fill: #fff"/>
      <path d="M104.81,104.83H202v.89H104.44Z" style="fill: #fff"/>
      <path d="M244.25,195.85V126.22H246q0,33.81-.08,67.63c0,.68-1,1.37-1.61,2.06Z" style="fill: #fff"/>
    </g>
  </g>
</svg>
